# xmcd CD database file generated by LOLA_Freedb v0.9beta0
# 
# Track frame offsets:
#      150
#      15942
#      25418
#      32103
#      51338
#      70012
# 
# Disc length: 1298 seconds
# 
# Revision: 1 
# Processed by: cddbd v1.5.1PL2 Copyright (c) Steve Scherf et al.
# Submitted via: LOLA_Freedb v0.9beta0
# 
DISCID=44051006
DTITLE=Normaal - Effen Zitten Bonus CD
DYEAR=2001
DGENRE=Acoustic
TTITLE0=Normaal - 't is stil
TTITLE1=Veur Effen
TTITLE2=Bier Bier Bier
TTITLE3=Heikikkowokan
TTITLE4=Drieteri-je bleus
TTITLE5=Oerend zacht
EXTD=Bonus CD Effen Zitten
EXTT0=
EXTT1=
EXTT2=
EXTT3=
EXTT4=
EXTT5=
PLAYORDER=
